<svg xmlns="http://www.w3.org/2000/svg" viewBox="0 0 32 40" x="0px" y="0px"><title>Edit</title><g data-name="Layer 2"><path d="M23,30a3.0033,3.0033,0,0,0,3-3V22.9531a1,1,0,0,0-2,0V27a1.0009,1.0009,0,0,1-1,1H5a1.0009,1.0009,0,0,1-1-1V5A1.0009,1.0009,0,0,1,5,4H23a1.0009,1.0009,0,0,1,1,1V8.084a1,1,0,1,0,2,0V5a3.0033,3.0033,0,0,0-3-3H5A3.0033,3.0033,0,0,0,2,5V27a3.0033,3.0033,0,0,0,3,3Z"/><path d="M7,19a1,1,0,0,0,0,2h4a1,1,0,0,0,0-2Z"/><path d="M26.6064,10.5654a1,1,0,0,0-1.414,0L15.293,20.4648a.9993.9993,0,0,0-.293.7071V23H7a1,1,0,0,0,0,2H18.8286a1,1,0,0,0,.707-.293l9.9-9.8994a1,1,0,0,0,0-1.414ZM18.4146,23H17V21.5859l8.8994-8.8994,1.4146,1.4141Z"/><path d="M15,10.5A4.5,4.5,0,1,0,10.5,15,4.505,4.505,0,0,0,15,10.5ZM10.5,13A2.5,2.5,0,1,1,13,10.5,2.5026,2.5026,0,0,1,10.5,13Z"/></g><text x="0" y="47" fill="#000000" font-size="5px" font-weight="bold" font-family="'Helvetica Neue', Helvetica, Arial-Unicode, Arial, Sans-serif">Created by M Yudi Maulana</text><text x="0" y="52" fill="#000000" font-size="5px" font-weight="bold" font-family="'Helvetica Neue', Helvetica, Arial-Unicode, Arial, Sans-serif">from the Noun Project</text></svg>